<svg xmlns="http://www.w3.org/2000/svg" viewBox="0 0 1400 760" role="img" aria-labelledby="title desc">
  <title id="title">SailPDF nautical background</title>
  <desc id="desc">A stylized sailing route over the sea with a sailboat and document-shaped sails.</desc>
  <defs>
    <linearGradient id="sky" x1="0" x2="1" y1="0" y2="1">
      <stop offset="0" stop-color="#123b58"/>
      <stop offset=".48" stop-color="#0c7c74"/>
      <stop offset="1" stop-color="#f0b45c"/>
    </linearGradient>
    <linearGradient id="sea" x1="0" x2="1" y1="0" y2="0">
      <stop offset="0" stop-color="#082f46"/>
      <stop offset=".52" stop-color="#0a6a76"/>
      <stop offset="1" stop-color="#0f8a80"/>
    </linearGradient>
    <linearGradient id="sail" x1="0" x2="1" y1="0" y2="1">
      <stop offset="0" stop-color="#ffffff"/>
      <stop offset="1" stop-color="#dcebe8"/>
    </linearGradient>
    <filter id="soft-shadow" x="-20%" y="-20%" width="140%" height="140%">
      <feDropShadow dx="0" dy="18" stdDeviation="16" flood-color="#06212f" flood-opacity=".24"/>
    </filter>
  </defs>

  <rect width="1400" height="760" fill="url(#sky)"/>
  <circle cx="1110" cy="190" r="92" fill="#f2c173" opacity=".88"/>
  <circle cx="1110" cy="190" r="138" fill="#f2c173" opacity=".16"/>

  <path d="M0 454C136 404 242 488 368 444c160-56 248-154 418-108 145 39 248 140 401 101 84-22 150-74 213-96v419H0Z" fill="url(#sea)" opacity=".92"/>
  <path d="M0 520C168 459 278 564 421 510c163-62 262-95 421-44 139 45 232 92 374 44 72-24 129-63 184-78v328H0Z" fill="#f7f4ef" opacity=".16"/>
  <path d="M0 595C182 548 274 631 433 594c133-31 229-83 388-47 178 40 309 96 579 12v201H0Z" fill="#ffffff" opacity=".12"/>

  <path d="M195 365C332 293 467 275 605 306c139 31 239 105 368 103 109-2 204-52 292-114" fill="none" stroke="#ffd08a" stroke-width="5" stroke-linecap="round" stroke-dasharray="2 20" opacity=".72"/>
  <circle cx="195" cy="365" r="9" fill="#ffd08a"/>
  <circle cx="1265" cy="295" r="9" fill="#ffd08a"/>

  <g filter="url(#soft-shadow)" transform="translate(720 190)">
    <path d="M0 0v310" stroke="#123b58" stroke-width="10" stroke-linecap="round"/>
    <path d="M12 16C119 64 197 161 226 291H18Z" fill="url(#sail)"/>
    <path d="M-17 46C-107 98-166 184-188 291h171Z" fill="#f8dfb0"/>
    <path d="M18 76h108M35 124h128M52 172h142M70 220h129" stroke="#0c7c74" stroke-width="9" stroke-linecap="round" opacity=".68"/>
    <path d="M-222 304h512l-54 52H-168Z" fill="#17211f"/>
    <path d="M-146 322c77 29 156 29 238 0 47-17 87-18 126-5l-27 25H-120Z" fill="#f7f4ef" opacity=".18"/>
  </g>

  <path d="M112 647c101-28 199-28 294 0s197 28 306 0 211-28 305 0 187 28 281 0" fill="none" stroke="#ffffff" stroke-width="9" stroke-linecap="round" opacity=".22"/>
  <path d="M146 696c80-21 160-21 240 0s160 21 240 0 160-21 240 0 160 21 240 0" fill="none" stroke="#ffffff" stroke-width="7" stroke-linecap="round" opacity=".16"/>
</svg>
