<svg xmlns="http://www.w3.org/2000/svg" viewBox="0 0 220 160" role="img" aria-labelledby="title desc">
  <title id="title">Tirelli Yacht</title>
  <desc id="desc">Logo Tirelli Yacht in stile nautico.</desc>
  <defs>
    <linearGradient id="sail" x1="34" x2="178" y1="22" y2="118" gradientUnits="userSpaceOnUse">
      <stop stop-color="#111936"/>
      <stop offset="1" stop-color="#4f79ad"/>
    </linearGradient>
    <linearGradient id="ribbon" x1="24" x2="196" y1="116" y2="156" gradientUnits="userSpaceOnUse">
      <stop stop-color="#121936"/>
      <stop offset="1" stop-color="#263f70"/>
    </linearGradient>
  </defs>
  <path d="M110 14C67 39 38 82 34 119c25-3 51 5 76 22 25-17 51-25 76-22-4-37-33-80-76-105Z" fill="url(#sail)" stroke="#121936" stroke-width="4" stroke-linejoin="round"/>
  <path d="M110 31c-32 22-52 55-57 92 19 1 38 8 57 20 19-12 38-19 57-20-5-37-25-70-57-92Z" fill="none" stroke="#fff" stroke-width="9" stroke-linejoin="round"/>
  <path d="M110 14v126" stroke="#233960" stroke-width="2" opacity=".45"/>
  <path d="M35 115c25-3 50 5 75 22 25-17 50-25 75-22v28c-24-3-49 2-75 17-26-15-51-20-75-17v-28Z" fill="url(#ribbon)" stroke="#121936" stroke-width="3" stroke-linejoin="round"/>
  <text x="110" y="142" fill="#fff" font-family="Arial, Helvetica, sans-serif" font-size="18" font-weight="700" letter-spacing="5" text-anchor="middle">TIRELLI YACHT</text>
</svg>
